<svg width="20" height="20" viewBox="0 0 20 20" fill="none" xmlns="http://www.w3.org/2000/svg">
<path d="M16.2475 6.65752L9.99997 12.7475L3.75247 6.65752C3.64085 6.54849 3.49101 6.48746 3.33497 6.48746C3.17894 6.48746 3.0291 6.54849 2.91747 6.65752C2.86343 6.71048 2.82049 6.77368 2.79118 6.84344C2.76186 6.9132 2.74677 6.98811 2.74677 7.06377C2.74677 7.13944 2.76186 7.21434 2.79118 7.2841C2.82049 7.35386 2.86343 7.41707 2.91747 7.47002L9.56372 13.95C9.68044 14.0638 9.83698 14.1275 9.99997 14.1275C10.163 14.1275 10.3195 14.0638 10.4362 13.95L17.0825 7.47127C17.1369 7.41828 17.1802 7.35491 17.2097 7.28493C17.2392 7.21494 17.2545 7.13974 17.2545 7.06377C17.2545 6.9878 17.2392 6.91261 17.2097 6.84262C17.1802 6.77263 17.1369 6.70927 17.0825 6.65627C16.9709 6.54724 16.821 6.48621 16.665 6.48621C16.5089 6.48621 16.3591 6.54724 16.2475 6.65627V6.65752Z" fill="#FDFDFD"/>
</svg>
