<svg width="32" height="32" viewBox="0 0 32 32" fill="none" xmlns="http://www.w3.org/2000/svg">
<path d="M12.0533 28.7198C13.3333 29.1065 14.6267 29.3332 16 29.3332C19.5362 29.3332 22.9276 27.9284 25.4281 25.4279C27.9286 22.9274 29.3333 19.5361 29.3333 15.9998C29.3333 14.2489 28.9885 12.5151 28.3184 10.8974C27.6483 9.27972 26.6662 7.80986 25.4281 6.57175C24.19 5.33363 22.7201 4.35151 21.1024 3.68144C19.4848 3.01138 17.751 2.6665 16 2.6665C14.249 2.6665 12.5152 3.01138 10.8975 3.68144C9.27987 4.35151 7.81001 5.33363 6.5719 6.57175C4.07141 9.07223 2.66666 12.4636 2.66666 15.9998C2.66666 21.6665 6.22666 26.5332 11.2533 28.4532C11.1333 27.4132 11.0133 25.6932 11.2533 24.5065L12.7867 17.9198C12.7867 17.9198 12.4 17.1465 12.4 15.9198C12.4 14.0798 13.5467 12.7065 14.8533 12.7065C16 12.7065 16.5333 13.5465 16.5333 14.6265C16.5333 15.7732 15.7733 17.4132 15.3867 18.9865C15.16 20.2932 16.08 21.4398 17.4133 21.4398C19.7867 21.4398 21.6267 18.9065 21.6267 15.3332C21.6267 12.1332 19.3333 9.94651 16.04 9.94651C12.28 9.94651 10.0667 12.7465 10.0667 15.6932C10.0667 16.8398 10.44 17.9998 11.0533 18.7598C11.1733 18.8398 11.1733 18.9465 11.1333 19.1465L10.7467 20.5998C10.7467 20.8265 10.6 20.9065 10.3733 20.7465C8.66666 19.9998 7.67999 17.5732 7.67999 15.6132C7.67999 11.3998 10.6667 7.57317 16.4267 7.57317C21.0133 7.57317 24.5867 10.8665 24.5867 15.2398C24.5867 19.8265 21.7467 23.5065 17.68 23.5065C16.3867 23.5065 15.12 22.8132 14.6667 21.9998L13.7733 25.1598C13.4667 26.3065 12.6267 27.8398 12.0533 28.7598V28.7198Z" fill="white"/>
</svg>
