<svg width="32" height="32" viewBox="0 0 32 32" fill="none" xmlns="http://www.w3.org/2000/svg">
<path d="M16 2.6665C8.63999 2.6665 2.66666 8.63984 2.66666 15.9998C2.66666 23.3598 8.63999 29.3332 16 29.3332C23.36 29.3332 29.3333 23.3598 29.3333 15.9998C29.3333 8.63984 23.36 2.6665 16 2.6665ZM22.1867 11.7332C21.9867 13.8398 21.12 18.9598 20.68 21.3198C20.4933 22.3198 20.12 22.6532 19.7733 22.6932C19 22.7598 18.4133 22.1865 17.6667 21.6932C16.4933 20.9198 15.8267 20.4398 14.6933 19.6932C13.3733 18.8265 14.2267 18.3465 14.9867 17.5732C15.1867 17.3732 18.6 14.2665 18.6667 13.9865C18.6759 13.9441 18.6747 13.9001 18.6631 13.8582C18.6515 13.8164 18.6298 13.7781 18.6 13.7465C18.52 13.6798 18.4133 13.7065 18.32 13.7198C18.2 13.7465 16.3333 14.9865 12.6933 17.4398C12.16 17.7998 11.68 17.9865 11.2533 17.9732C10.7733 17.9598 9.86666 17.7065 9.18666 17.4798C8.34666 17.2132 7.69332 17.0665 7.74666 16.5998C7.77332 16.3598 8.10666 16.1198 8.73332 15.8665C12.6267 14.1732 15.2133 13.0532 16.5067 12.5198C20.2133 10.9732 20.9733 10.7065 21.48 10.7065C21.5867 10.7065 21.84 10.7332 22 10.8665C22.1333 10.9732 22.1733 11.1198 22.1867 11.2265C22.1733 11.3065 22.2 11.5465 22.1867 11.7332Z" fill="white"/>
</svg>
