<svg width="32" height="32" viewBox="0 0 32 32" fill="none" xmlns="http://www.w3.org/2000/svg">
<path d="M16.36 3C8.98138 3 3 8.98138 3 16.36C3 23.7386 8.98138 29.72 16.36 29.72C23.7386 29.72 29.72 23.7386 29.72 16.36C29.72 8.98138 23.7386 3 16.36 3ZM21.498 18.0731C21.498 18.0731 22.6796 19.2394 22.9704 19.7807C22.9788 19.7918 22.9829 19.803 22.9857 19.8085C23.104 20.0076 23.1318 20.162 23.0734 20.2775C22.976 20.4696 22.642 20.5642 22.5279 20.5726H20.4404C20.2956 20.5726 19.9922 20.535 19.6248 20.2817C19.3423 20.0841 19.064 19.7598 18.7926 19.4439C18.3877 18.9735 18.037 18.5672 17.6835 18.5672C17.6386 18.5671 17.594 18.5742 17.5513 18.5881C17.2841 18.6743 16.9417 19.0557 16.9417 20.0716C16.9417 20.3889 16.6912 20.5712 16.5145 20.5712H15.5584C15.2327 20.5712 13.5363 20.4571 12.0333 18.872C10.1935 16.9306 8.53744 13.0367 8.52352 13.0005C8.41915 12.7486 8.63486 12.6136 8.87005 12.6136H10.9784C11.2595 12.6136 11.3514 12.7848 11.4154 12.9365C11.4906 13.1132 11.7661 13.816 12.2184 14.6065C12.9518 15.8952 13.4013 16.4184 13.7618 16.4184C13.8293 16.4177 13.8957 16.4005 13.9552 16.3683C14.4256 16.1067 14.3379 14.4298 14.317 14.0818C14.317 14.0164 14.3156 13.3317 14.0749 13.0033C13.9023 12.7653 13.6087 12.6749 13.4305 12.6415C13.5026 12.542 13.5976 12.4613 13.7075 12.4063C14.0303 12.2448 14.6121 12.2212 15.1896 12.2212H15.5111C16.1373 12.2295 16.2988 12.2699 16.5256 12.3269C16.9849 12.4369 16.9946 12.7333 16.9542 13.7478C16.9417 14.0359 16.9292 14.3616 16.9292 14.7457C16.9292 14.8292 16.925 14.9182 16.925 15.0129C16.9111 15.5292 16.8944 16.1151 17.259 16.3558C17.3066 16.3856 17.3615 16.4016 17.4177 16.4017C17.5443 16.4017 17.9256 16.4017 18.9582 14.6302C19.2767 14.0599 19.5534 13.4674 19.7863 12.8572C19.8072 12.821 19.8684 12.7097 19.9408 12.6665C19.9942 12.6393 20.0534 12.6254 20.1133 12.6262H22.5919C22.8619 12.6262 23.047 12.6665 23.0817 12.7709C23.143 12.9365 23.0706 13.4417 21.9392 14.9739L21.434 15.6405C20.4084 16.9849 20.4084 17.053 21.498 18.0731Z" fill="white"/>
</svg>
